<?xml version="1.0" encoding="UTF-8" standalone="no"?>
<!-- Created with Inkscape (http://www.inkscape.org/) -->
<svg
   xmlns:dc="http://purl.org/dc/elements/1.1/"
   xmlns:cc="http://creativecommons.org/ns#"
   xmlns:rdf="http://www.w3.org/1999/02/22-rdf-syntax-ns#"
   xmlns:svg="http://www.w3.org/2000/svg"
   xmlns="http://www.w3.org/2000/svg"
   xmlns:xlink="http://www.w3.org/1999/xlink"
   xmlns:sodipodi="http://sodipodi.sourceforge.net/DTD/sodipodi-0.dtd"
   xmlns:inkscape="http://www.inkscape.org/namespaces/inkscape"
   width="128"
   height="128"
   id="svg2"
   sodipodi:version="0.32"
   inkscape:version="0.46"
   version="1.0"
   sodipodi:docname="logo.svg"
   inkscape:output_extension="org.inkscape.output.svg.inkscape">
  <defs
     id="defs4">
    <linearGradient
       inkscape:collect="always"
       id="linearGradient5967">
      <stop
         style="stop-color:#729fcf;stop-opacity:1"
         offset="0"
         id="stop5969" />
      <stop
         style="stop-color:#204a87;stop-opacity:1"
         offset="1"
         id="stop5971" />
    </linearGradient>
    <linearGradient
       inkscape:collect="always"
       id="linearGradient5908">
      <stop
         style="stop-color:#ffffff;stop-opacity:1;"
         offset="0"
         id="stop5910" />
      <stop
         style="stop-color:#ffffff;stop-opacity:0;"
         offset="1"
         id="stop5912" />
    </linearGradient>
    <linearGradient
       id="linearGradient5758">
      <stop
         style="stop-color:#fed190;stop-opacity:1"
         offset="0"
         id="stop5760" />
      <stop
         style="stop-color:#f57900;stop-opacity:1"
         offset="1"
         id="stop5762" />
    </linearGradient>
    <inkscape:perspective
       sodipodi:type="inkscape:persp3d"
       inkscape:vp_x="0 : 526.18109 : 1"
       inkscape:vp_y="0 : 1000 : 0"
       inkscape:vp_z="744.09448 : 526.18109 : 1"
       inkscape:persp3d-origin="372.04724 : 350.78739 : 1"
       id="perspective10" />
    <inkscape:perspective
       id="perspective4959"
       inkscape:persp3d-origin="372.04724 : 350.78739 : 1"
       inkscape:vp_z="744.09448 : 526.18109 : 1"
       inkscape:vp_y="0 : 1000 : 0"
       inkscape:vp_x="0 : 526.18109 : 1"
       sodipodi:type="inkscape:persp3d" />
    <radialGradient
       inkscape:collect="always"
       xlink:href="#linearGradient5758"
       id="radialGradient5768"
       gradientUnits="userSpaceOnUse"
       cx="52.289364"
       cy="34.314896"
       fx="52.289364"
       fy="34.314896"
       r="49.565956" />
    <filter
       inkscape:collect="always"
       id="filter5952"
       x="-0.096968628"
       width="1.1939373"
       y="-0.15737987"
       height="1.3147597">
      <feGaussianBlur
         inkscape:collect="always"
         stdDeviation="4.1598248"
         id="feGaussianBlur5954" />
    </filter>
    <linearGradient
       id="linearGradient3962">
      <stop
         id="stop3964"
         offset="0.0000000"
         style="stop-color: rgb(211, 233, 255); stop-opacity: 1;" />
      <stop
         id="stop4134"
         offset="0.15517241"
         style="stop-color: rgb(211, 233, 255); stop-opacity: 1;" />
      <stop
         id="stop4346"
         offset="0.75000000"
         style="stop-color: rgb(64, 116, 174); stop-opacity: 1;" />
      <stop
         id="stop3966"
         offset="1.0000000"
         style="stop-color: rgb(54, 72, 108); stop-opacity: 1;" />
    </linearGradient>
    <linearGradient
       id="linearGradient4126">
      <stop
         id="stop4128"
         offset="0.0000000"
         style="stop-color: rgb(255, 255, 255); stop-opacity: 1;" />
      <stop
         id="stop4130"
         offset="1.0000000"
         style="stop-color: rgb(255, 255, 255); stop-opacity: 0.164948;" />
    </linearGradient>
    <inkscape:perspective
       id="perspective6243"
       inkscape:persp3d-origin="24 : 16 : 1"
       inkscape:vp_z="48 : 24 : 1"
       inkscape:vp_y="0 : 1000 : 0"
       inkscape:vp_x="0 : 24 : 1"
       sodipodi:type="inkscape:persp3d" />
    <radialGradient
       inkscape:collect="always"
       xlink:href="#linearGradient5967"
       id="radialGradient6578"
       gradientUnits="userSpaceOnUse"
       gradientTransform="matrix(1.6960583,-0.9792199,0.5605681,0.9709323,-89.039063,108.36095)"
       cx="110"
       cy="22.25"
       fx="110"
       fy="22.25"
       r="12.25" />
    <radialGradient
       inkscape:collect="always"
       xlink:href="#linearGradient5758"
       id="radialGradient6580"
       gradientUnits="userSpaceOnUse"
       gradientTransform="matrix(1.3928113,-0.80414,0.4858968,0.8415981,-37.213351,47.483516)"
       cx="52.289364"
       cy="34.314896"
       fx="52.289364"
       fy="34.314896"
       r="49.565956" />
    <linearGradient
       inkscape:collect="always"
       xlink:href="#linearGradient5908"
       id="linearGradient6582"
       gradientUnits="userSpaceOnUse"
       x1="63.727661"
       y1="118.33192"
       x2="63.727661"
       y2="68.048958" />
  </defs>
  <sodipodi:namedview
     id="base"
     pagecolor="#ffffff"
     bordercolor="#666666"
     borderopacity="1.0"
     inkscape:pageopacity="0.0"
     inkscape:pageshadow="2"
     inkscape:zoom="1"
     inkscape:cx="64"
     inkscape:cy="64"
     inkscape:document-units="px"
     inkscape:current-layer="layer1"
     showgrid="false"
     inkscape:window-width="1920"
     inkscape:window-height="1118"
     inkscape:window-x="1920"
     inkscape:window-y="24"
     inkscape:showpageshadow="true"
     showborder="true" />
  <metadata
     id="metadata7">
    <rdf:RDF>
      <cc:Work
         rdf:about="">
        <dc:format>image/svg+xml</dc:format>
        <dc:type
           rdf:resource="http://purl.org/dc/dcmitype/StillImage" />
      </cc:Work>
    </rdf:RDF>
  </metadata>
  <g
     inkscape:label="Ebene 1"
     inkscape:groupmode="layer"
     id="layer1">
    <g
       id="g6553"
       transform="matrix(0.7358022,0,0,0.7358022,15.919159,-1.807024)">
      <g
         transform="matrix(1.071278,0,0,1.071278,-5.861148,-8.8420325)"
         id="g5752">
        <path
           sodipodi:nodetypes="ccccccccccccccccccccccccccccccccccccccccccccccccccccccccccccccccccccccccccccccccccccccccccccccccccccccccccccccccccccccccccccccccccccccccccccccccccccccccccccccccccccccccccccccccccccccccccccccccccccccccccccccccccccccccccccccccccccccccccccccccccccccccccccccccccccccccccccccccccccccccccccccccccccccccccccccccccccccccccccccccccccccccccccccccccccccccccccccccccccccccccccccccccccccccccccccccccccccccccccccccccccccccccccccccccccccccccccccccccccccccccccccccccccccccccccccccccccccccccccccccccccccccccccccccccccccccccccccccccccccccccccccccccccccccccccccccccccccccccccccccccccccccccccccccccccccccccccccccccccccccccccccccccccccccccccccccccccccccccccccccccccccccccccccccccccccccccccccccccccccccccccccccccccccccccccccc"
           id="path4965"
           d="M 62.34375,12.53125 L 62.21875,12.5625 L 61.71875,12.59375 L 61.78125,13.59375 L 62.28125,13.5625 L 62.375,13.53125 L 62.40625,13.53125 L 64.75,13.46875 L 65.25,13.46875 L 65.75,13.46875 L 67.15625,13.5 L 67.1875,13.5 L 67.5,13.53125 L 68,13.53125 L 68.03125,12.53125 L 67.53125,12.53125 L 67.21875,12.5 L 67.1875,12.5 L 65.75,12.46875 L 65.25,12.46875 L 64.75,12.46875 L 62.34375,12.53125 z M 69.96875,13.6875 L 70.46875,13.71875 L 70.96875,13.75 L 72.84375,13.96875 L 73.40625,14.0625 L 73.90625,14.15625 L 74.0625,13.15625 L 73.5625,13.09375 L 72.96875,13 L 71.09375,12.75 L 71.0625,12.75 L 70.5625,12.71875 L 70.0625,12.6875 L 69.96875,13.6875 z M 59.1875,12.78125 L 56.65625,13.125 L 56.625,13.125 L 56.1875,13.1875 L 55.71875,13.28125 L 55.875,14.28125 L 56.375,14.1875 L 56.78125,14.09375 L 56.78125,14.125 L 59.3125,13.78125 L 59.8125,13.71875 L 59.6875,12.71875 L 59.1875,12.78125 z M 75.875,14.5 L 76.34375,14.5625 L 76.5,14.59375 L 76.53125,14.625 L 76.53125,14.59375 L 78.34375,15.03125 L 78.34375,15 L 79.25,15.25 L 79.71875,15.375 L 79.96875,14.40625 L 79.5,14.28125 L 78.5625,14.03125 L 76.71875,13.625 L 76.53125,13.59375 L 76.03125,13.5 L 75.875,14.5 z M 53.21875,13.75 L 51.125,14.25 L 50.28125,14.5 L 49.8125,14.625 L 50.09375,15.59375 L 50.5625,15.4375 L 51.375,15.21875 L 53.46875,14.75 L 53.9375,14.625 L 53.71875,13.65625 L 53.21875,13.75 z M 81.625,15.90625 L 82.09375,16.0625 L 83.625,16.5625 L 84.90625,17.03125 L 85.375,17.21875 L 85.71875,16.28125 L 85.25,16.09375 L 83.96875,15.625 L 83.9375,15.625 L 82.40625,15.125 L 81.9375,14.96875 L 81.625,15.90625 z M 47.40625,15.375 L 45.84375,15.90625 L 45.8125,15.90625 L 44.5625,16.40625 L 44.09375,16.59375 L 44.46875,17.5 L 44.9375,17.3125 L 46.15625,16.84375 L 46.1875,16.84375 L 47.71875,16.3125 L 48.1875,16.15625 L 47.875,15.21875 L 47.40625,15.375 z M 87.1875,17.96875 L 87.65625,18.15625 L 88.65625,18.625 L 88.6875,18.625 L 90.28125,19.40625 L 90.3125,19.40625 L 90.34375,19.4375 L 90.78125,19.65625 L 91.25,18.78125 L 90.8125,18.5625 L 90.75,18.53125 L 89.09375,17.71875 L 88.0625,17.25 L 87.59375,17.0625 L 87.1875,17.96875 z M 41.78125,17.59375 L 40.75,18.03125 L 40.75,18.0625 L 39.0625,18.90625 L 38.625,19.125 L 39.0625,20.03125 L 39.5,19.8125 L 41.15625,18.9375 L 41.1875,18.9375 L 42.1875,18.5 L 42.65625,18.28125 L 42.21875,17.375 L 41.78125,17.59375 z M 36.40625,20.375 L 35.9375,20.65625 L 33.84375,22 L 33.4375,22.25 L 33.96875,23.09375 L 34.40625,22.84375 L 36.4375,21.53125 L 36.46875,21.5 L 36.90625,21.25 L 37.34375,21 L 36.84375,20.125 L 36.40625,20.375 z M 31.375,23.75 L 29.3125,25.375 L 29.28125,25.375 L 29,25.625 L 28.625,25.96875 L 29.28125,26.71875 L 29.65625,26.375 L 29.9375,26.15625 L 32,24.53125 L 32.375,24.21875 L 31.75,23.4375 L 31.375,23.75 z M 26.75,27.625 L 25.28125,29.03125 L 24.59375,29.75 L 24.25,30.125 L 24.96875,30.8125 L 25.3125,30.4375 L 25.96875,29.75 L 26,29.71875 L 27.4375,28.375 L 27.78125,28.03125 L 27.09375,27.28125 L 26.75,27.625 z M 22.53125,32 L 21.625,33.03125 L 21.625,33.0625 L 20.625,34.3125 L 20.3125,34.71875 L 21.09375,35.34375 L 21.40625,34.9375 L 22.40625,33.6875 L 23.3125,32.65625 L 23.625,32.28125 L 22.875,31.625 L 22.53125,32 z M 18.84375,36.75 L 18.375,37.375 L 18.375,37.40625 L 17.15625,39.28125 L 16.90625,39.6875 L 17.75,40.25 L 18,39.8125 L 19.1875,37.96875 L 19.21875,37.9375 L 19.65625,37.34375 L 19.9375,36.9375 L 19.125,36.34375 L 18.84375,36.75 z M 15.625,41.90625 L 15.5625,42.0625 L 15.53125,42.0625 L 14.3125,44.5 L 14.28125,44.5 L 14.25,44.59375 L 14.03125,45.0625 L 14.9375,45.46875 L 15.15625,45 L 15.1875,44.9375 L 15.1875,44.90625 L 16.4375,42.53125 L 16.40625,42.53125 L 16.5,42.375 L 16.75,41.96875 L 15.875,41.46875 L 15.625,41.90625 z M 114.25,42.84375 L 114.46875,43.28125 L 115,44.3125 L 115,44.34375 L 115.71875,45.8125 L 115.71875,45.84375 L 115.78125,45.96875 L 115.96875,46.40625 L 116.90625,46 L 116.6875,45.5625 L 116.625,45.4375 L 116.625,45.40625 L 115.90625,43.90625 L 115.90625,43.875 L 115.375,42.84375 L 115.125,42.40625 L 114.25,42.84375 z M 13.03125,47.375 L 12.15625,49.5625 L 12.15625,49.59375 L 11.9375,50.1875 L 11.78125,50.65625 L 12.71875,51 L 12.875,50.5 L 13.09375,49.9375 L 13.09375,49.90625 L 13.9375,47.71875 L 14.125,47.28125 L 13.1875,46.90625 L 13.03125,47.375 z M 116.75,48.25 L 116.9375,48.71875 L 117.03125,48.90625 L 117.625,50.46875 L 117.59375,50.46875 L 117.96875,51.5 L 118.125,51.96875 L 119.0625,51.65625 L 118.90625,51.1875 L 118.5625,50.15625 L 118.5625,50.125 L 117.96875,48.5625 L 117.96875,48.53125 L 117.875,48.34375 L 117.6875,47.875 L 116.75,48.25 z M 11,53.0625 L 10.5,54.875 L 10.25,56 L 10.125,56.46875 L 11.09375,56.71875 L 11.21875,56.21875 L 11.46875,55.125 L 11.96875,53.34375 L 12.125,52.875 L 11.15625,52.59375 L 11,53.0625 z M 118.6875,53.875 L 118.8125,54.34375 L 119.09375,55.3125 L 119.0625,55.3125 L 119.46875,56.96875 L 119.53125,57.21875 L 119.625,57.71875 L 120.59375,57.5 L 120.5,57.03125 L 120.4375,56.75 L 120.0625,55.0625 L 120.03125,55.0625 L 119.78125,54.09375 L 119.65625,53.59375 L 118.6875,53.875 z M 9.625,58.96875 L 9.375,60.375 L 9.375,60.40625 L 9.1875,61.9375 L 9.125,62.4375 L 10.09375,62.5625 L 10.15625,62.0625 L 10.375,60.53125 L 10.34375,60.53125 L 10.625,59.125 L 10.6875,58.625 L 9.71875,58.46875 L 9.625,58.96875 z M 120,59.65625 L 120.0625,60.15625 L 120.09375,60.3125 L 120.34375,62.03125 L 120.46875,63.09375 L 120.53125,63.59375 L 121.5,63.5 L 121.46875,63 L 121.34375,61.90625 L 121.09375,60.1875 L 121.09375,60.15625 L 121.0625,60 L 120.96875,59.5 L 120,59.65625 z M 8.875,64.96875 L 8.78125,66.09375 L 8.75,67.96875 L 8.71875,68.46875 L 9.71875,68.5 L 9.75,68 L 9.78125,66.15625 L 9.78125,66.125 L 9.875,65.03125 L 9.90625,64.53125 L 8.90625,64.46875 L 8.875,64.96875 z M 120.6875,65.5625 L 120.6875,66.0625 L 120.75,67.21875 L 120.75,67.25 L 120.78125,69 L 120.78125,69.03125 L 120.78125,69.53125 L 121.78125,69.5625 L 121.78125,69.0625 L 121.78125,69 L 121.75,67.21875 L 121.75,67.1875 L 121.6875,66 L 121.6875,65.5 L 120.6875,65.5625 z M 8.75,70.5 L 8.78125,71 L 8.78125,71.90625 L 8.9375,74.03125 L 9,74.53125 L 10,74.4375 L 9.9375,73.9375 L 9.78125,71.875 L 9.78125,71.84375 L 9.78125,70.96875 L 9.75,70.46875 L 8.75,70.5 z M 120.6875,72 L 120.5,74.65625 L 120.5,74.6875 L 120.46875,74.96875 L 120.40625,75.46875 L 121.375,75.59375 L 121.4375,75.09375 L 121.5,74.78125 L 121.5,74.75 L 121.6875,72.0625 L 121.71875,71.5625 L 120.75,71.5 L 120.6875,72 z M 9.21875,76.53125 L 9.28125,77.03125 L 9.375,77.59375 L 9.375,77.625 L 9.8125,80 L 9.875,80.5 L 10.875,80.3125 L 10.78125,79.84375 L 10.34375,77.46875 L 10.375,77.46875 L 10.28125,76.90625 L 10.21875,76.40625 L 9.21875,76.53125 z M 120.0625,77.90625 L 119.65625,80.1875 L 119.5,80.84375 L 119.40625,81.3125 L 120.375,81.53125 L 120.46875,81.0625 L 120.625,80.40625 L 120.625,80.375 L 121.03125,78.09375 L 121.125,77.59375 L 120.15625,77.40625 L 120.0625,77.90625 z M 10.34375,82.46875 L 10.46875,82.96875 L 10.5,83.125 L 11.25,85.78125 L 11.25,85.8125 L 11.28125,85.90625 L 11.4375,86.375 L 12.40625,86.03125 L 12.25,85.5625 L 12.21875,85.53125 L 12.21875,85.5 L 11.46875,82.875 L 11.4375,82.71875 L 11.3125,82.25 L 10.34375,82.46875 z M 118.78125,83.71875 L 118.28125,85.5 L 118.28125,85.53125 L 117.9375,86.5625 L 117.78125,87.03125 L 118.71875,87.34375 L 118.875,86.875 L 119.25,85.8125 L 119.25,85.78125 L 119.75,84 L 119.90625,83.5 L 118.9375,83.25 L 118.78125,83.71875 z M 12.09375,88.28125 L 12.28125,88.75 L 13.15625,91 L 13.40625,91.5625 L 13.625,92 L 14.53125,91.59375 L 14.3125,91.15625 L 14.09375,90.625 L 14.09375,90.59375 L 13.21875,88.375 L 13.03125,87.90625 L 12.09375,88.28125 z M 116.90625,89.34375 L 116.40625,90.59375 L 116.40625,90.625 L 115.75,92.09375 L 115.53125,92.5625 L 116.4375,92.96875 L 116.65625,92.5 L 117.34375,91 L 117.84375,89.71875 L 118.03125,89.25 L 117.09375,88.90625 L 116.90625,89.34375 z M 14.46875,93.84375 L 14.6875,94.28125 L 15.53125,95.9375 L 15.5625,95.9375 L 16.125,96.96875 L 16.375,97.375 L 17.25,96.875 L 17,96.46875 L 16.40625,95.46875 L 16.4375,95.46875 L 15.59375,93.84375 L 15.375,93.375 L 14.46875,93.84375 z M 114.4375,94.78125 L 114.0625,95.46875 L 114.09375,95.46875 L 112.96875,97.375 L 112.71875,97.8125 L 113.59375,98.28125 L 113.84375,97.875 L 114.9375,95.9375 L 114.96875,95.9375 L 115.3125,95.21875 L 115.5625,94.78125 L 114.65625,94.3125 L 114.4375,94.78125 z M 17.4375,99.125 L 17.6875,99.53125 L 18.375,100.59375 L 18.375,100.625 L 19.40625,102.03125 L 19.6875,102.4375 L 20.5,101.875 L 20.21875,101.46875 L 19.21875,100.0625 L 19.1875,100.03125 L 18.53125,99 L 18.28125,98.59375 L 17.4375,99.125 z M 111.40625,99.875 L 111.3125,100.03125 L 111.28125,100.0625 L 109.75,102.21875 L 109.6875,102.28125 L 109.375,102.6875 L 110.15625,103.3125 L 110.46875,102.90625 L 110.53125,102.84375 L 110.53125,102.8125 L 110.5625,102.8125 L 112.125,100.625 L 112.125,100.59375 L 112.25,100.40625 L 112.5,100 L 111.65625,99.46875 L 111.40625,99.875 z M 20.90625,104.0625 L 21.21875,104.4375 L 21.625,104.9375 L 21.625,104.96875 L 23.1875,106.75 L 23.5,107.125 L 24.28125,106.46875 L 23.9375,106.09375 L 22.40625,104.3125 L 22.03125,103.8125 L 21.71875,103.4375 L 20.90625,104.0625 z M 107.84375,104.625 L 106.34375,106.3125 L 106.34375,106.34375 L 105.875,106.84375 L 105.53125,107.21875 L 106.25,107.90625 L 106.59375,107.53125 L 107.09375,107 L 108.59375,105.28125 L 108.90625,104.90625 L 108.15625,104.25 L 107.84375,104.625 z M 24.90625,108.59375 L 25.25,108.9375 L 25.28125,108.96875 L 27.25,110.84375 L 27.46875,111.03125 L 27.84375,111.375 L 28.5,110.625 L 28.125,110.28125 L 27.9375,110.09375 L 27.90625,110.09375 L 26,108.28125 L 25.96875,108.25 L 25.625,107.90625 L 24.90625,108.59375 z M 103.78125,108.96875 L 102.59375,110.09375 L 102.5625,110.09375 L 101.59375,110.96875 L 101.1875,111.3125 L 101.84375,112.0625 L 102.21875,111.71875 L 103.25,110.84375 L 104.46875,109.6875 L 104.8125,109.34375 L 104.125,108.625 L 103.78125,108.96875 z M 29.375,112.6875 L 29.78125,113 L 31.40625,114.28125 L 31.4375,114.28125 L 31.4375,114.3125 L 32.1875,114.84375 L 32.59375,115.125 L 33.15625,114.3125 L 32.75,114.03125 L 32.03125,113.5 L 30.40625,112.21875 L 30,111.90625 L 29.375,112.6875 z M 99.28125,112.875 L 98.46875,113.5 L 96.875,114.625 L 96.46875,114.90625 L 97.0625,115.71875 L 97.46875,115.4375 L 99.0625,114.3125 L 99.0625,114.28125 L 99.09375,114.28125 L 99.90625,113.65625 L 100.28125,113.34375 L 99.6875,112.5625 L 99.28125,112.875 z M 34.25,116.25 L 34.6875,116.53125 L 35.9375,117.34375 L 37.25,118.09375 L 37.6875,118.34375 L 38.1875,117.5 L 37.75,117.25 L 36.46875,116.5 L 36.4375,116.46875 L 35.21875,115.6875 L 34.8125,115.4375 L 34.25,116.25 z M 94.40625,116.25 L 94.0625,116.46875 L 94.03125,116.5 L 91.84375,117.75 L 91.40625,118 L 91.90625,118.875 L 92.3125,118.625 L 94.5625,117.34375 L 94.9375,117.09375 L 95.34375,116.84375 L 94.8125,116 L 94.40625,116.25 z M 39.46875,119.3125 L 39.9375,119.53125 L 40.75,119.9375 L 40.75,119.96875 L 42.65625,120.8125 L 43.125,121.03125 L 43.53125,120.125 L 43.0625,119.90625 L 41.1875,119.0625 L 41.15625,119.0625 L 40.375,118.65625 L 39.9375,118.40625 L 39.46875,119.3125 z M 89.1875,119.09375 L 86.875,120.15625 L 86.84375,120.15625 L 86.46875,120.3125 L 86.03125,120.5 L 86.375,121.4375 L 86.84375,121.25 L 87.25,121.09375 L 89.625,120.03125 L 90.0625,119.8125 L 89.65625,118.90625 L 89.1875,119.09375 z M 45,121.78125 L 45.46875,121.96875 L 45.8125,122.09375 L 45.84375,122.09375 L 48.3125,122.9375 L 48.8125,123.09375 L 49.125,122.15625 L 48.65625,122 L 46.1875,121.15625 L 46.15625,121.15625 L 45.84375,121.03125 L 45.375,120.84375 L 45,121.78125 z M 83.71875,121.375 L 81.78125,122.03125 L 81.75,122.03125 L 80.875,122.28125 L 80.40625,122.4375 L 80.65625,123.375 L 81.15625,123.25 L 82.03125,123 L 82.0625,123 L 84.03125,122.3125 L 84.5,122.15625 L 84.1875,121.21875 L 83.71875,121.375 z M 50.78125,123.65625 L 51.25,123.78125 L 53.84375,124.375 L 53.875,124.375 L 54.21875,124.4375 L 54.6875,124.53125 L 54.875,123.5625 L 54.375,123.46875 L 54.0625,123.40625 L 51.46875,122.8125 L 51,122.6875 L 50.78125,123.65625 z M 78,123.03125 L 76.4375,123.40625 L 75.09375,123.65625 L 74.59375,123.71875 L 74.78125,124.71875 L 75.25,124.625 L 76.625,124.375 L 76.65625,124.375 L 78.21875,124.03125 L 78.71875,123.90625 L 78.46875,122.9375 L 78,123.03125 z M 56.6875,124.875 L 57.1875,124.9375 L 59.46875,125.25 L 59.5,125.25 L 60.1875,125.28125 L 60.6875,125.34375 L 60.78125,124.34375 L 60.28125,124.3125 L 59.59375,124.25 L 59.5625,124.25 L 57.3125,123.96875 L 56.8125,123.90625 L 56.6875,124.875 z M 72.15625,124.09375 L 70.9375,124.25 L 70.90625,124.25 L 69.1875,124.375 L 68.6875,124.40625 L 68.75,125.40625 L 69.25,125.375 L 71,125.25 L 71.03125,125.25 L 72.28125,125.09375 L 72.78125,125.03125 L 72.625,124.03125 L 72.15625,124.09375 z M 62.71875,125.46875 L 63.21875,125.46875 L 65.25,125.53125 L 66.25,125.5 L 66.75,125.5 L 66.71875,124.5 L 66.21875,124.5 L 65.25,124.53125 L 63.25,124.46875 L 62.75,124.46875 L 62.71875,125.46875 z"
           style="opacity:1;fill:#555753;fill-opacity:1;stroke:none;stroke-width:1;stroke-linecap:square;stroke-linejoin:miter;stroke-miterlimit:4;stroke-dasharray:3, 3;stroke-dashoffset:0;stroke-opacity:1" />
        <path
           sodipodi:type="arc"
           style="opacity:1;fill:url(#radialGradient6578);fill-opacity:1;stroke:#16335d;stroke-width:0.69999999;stroke-linecap:square;stroke-linejoin:miter;stroke-miterlimit:4;stroke-dasharray:none;stroke-dashoffset:0;stroke-opacity:1"
           id="path5737"
           sodipodi:cx="112.25"
           sodipodi:cy="28.25"
           sodipodi:rx="12.25"
           sodipodi:ry="12.25"
           d="M 124.5,28.25 A 12.25,12.25 0 1 1 100,28.25 A 12.25,12.25 0 1 1 124.5,28.25 z"
           transform="translate(-6.4855987,-0.8584886)" />
      </g>
      <g
         transform="matrix(0.8106335,0,0,0.8106335,4.9550923,10.786286)"
         id="g6524">
        <path
           sodipodi:type="arc"
           style="fill:url(#radialGradient6580);fill-opacity:1;stroke:none;stroke-width:1;stroke-linecap:square;stroke-linejoin:miter;stroke-miterlimit:4;stroke-dasharray:none;stroke-dashoffset:0;stroke-opacity:1"
           id="path5786"
           sodipodi:cx="62.638298"
           sodipodi:cy="61.821278"
           sodipodi:rx="49.565956"
           sodipodi:ry="49.565956"
           d="M 112.20425,61.821278 A 49.565956,49.565956 0 1 1 13.072342,61.821278 A 49.565956,49.565956 0 1 1 112.20425,61.821278 z"
           transform="matrix(0.9699399,0,0,0.9699399,12.184139,6.8599793)" />
        <g
           id="g6500"
           transform="matrix(2.5215476,0,0,2.5215476,108.67374,-55.747216)"
           style="opacity:0.6;fill:#ffffff;fill-opacity:1">
          <path
             d="M 4.5920281,45.587694 C 4.5920281,45.845763 4.5920281,45.587694 4.5920281,45.587694 L 4.0567341,46.194013 C 3.7286222,45.807352 3.3602331,45.482187 2.9861462,45.142582 L 2.1649823,45.263413 L 1.4147455,44.415332 L 1.4147455,45.464897 L 2.0575109,45.951269 L 2.4853334,46.435775 L 3.0570734,45.789178 C 3.2009907,46.058741 3.3429433,46.328303 3.4858783,46.597866 L 3.4858783,47.40567 L 2.8421306,48.132821 L 1.6640713,48.941508 L 0.77188191,49.831831 L 0.20014201,49.18327 L 0.48601201,48.456119 L -0.084843791,47.809522 L -1.0489427,45.748803 L -1.870107,44.820167 L -2.085049,45.061929 L -1.762733,46.23429 L -1.1564141,46.921164 C -0.81012829,47.920825 -0.46757549,48.876279 -0.012835991,49.831831 C 0.69230991,49.831831 1.3570803,49.756975 2.0574126,49.668758 L 2.0574126,50.2348 L 1.2006869,52.336288 L 0.41498661,53.224646 L -0.22777879,54.600358 C -0.22777879,55.354426 -0.22777879,56.108494 -0.22777879,56.862464 L -0.012835991,57.752787 L -0.36973139,58.155755 L -1.1564141,58.641145 L -1.977578,59.328019 L -1.2983667,60.095545 L -2.227002,60.905215 L -2.048603,61.429016 L -3.441606,63.006212 L -4.369258,63.006212 L -5.154959,63.491602 L -5.655772,63.491602 L -5.655772,62.845005 L -5.86875,61.549847 C -6.145091,60.738212 -6.432827,59.932373 -6.725475,59.126534 C -6.725475,58.531709 -6.690012,57.942679 -6.65445,57.347952 L -6.296572,56.540148 L -6.797385,55.569271 L -6.760939,54.2358 L -7.44015,53.468274 L -7.100545,52.357311 L -7.653128,51.730361 L -8.618209,51.730361 L -8.939543,51.366786 L -9.903642,51.973597 L -10.296001,51.527993 L -11.189173,52.295912 C -11.795492,51.608547 -12.402794,50.921674 -13.009997,50.2348 L -13.723788,48.536772 L -13.081023,47.567859 L -13.437918,47.164006 L -12.6532,45.303789 C -12.00847,44.501781 -11.335055,43.732388 -10.653879,42.960146 L -9.439373,42.636848 L -8.082817,42.475641 L -7.154182,42.718385 L -5.833188,44.050873 L -5.368821,43.52609 L -4.727038,43.445536 L -3.512533,43.849388 L -2.583897,43.849388 L -1.941132,43.283346 L -1.655262,42.879493 L -2.29901,42.475641 L -3.37058,42.395086 C -3.667944,41.982589 -3.944285,41.54897 -4.297349,41.182448 L -4.655227,41.343655 L -4.798162,42.395086 L -5.440927,41.667935 L -5.58288,40.858265 L -6.29667,40.294188 L -6.583523,40.294188 L -5.868848,41.101991 L -6.154718,41.829142 L -6.725574,41.990349 L -6.368678,41.263198 L -7.012426,40.940883 L -7.582299,40.294286 L -8.654852,40.536047 L -8.796805,40.858363 L -9.43957,41.263198 L -9.796465,42.152539 L -10.688655,42.596669 L -11.081996,42.152539 L -11.509819,42.152539 L -11.509819,40.697255 L -10.581183,40.211865 L -9.867392,40.211865 L -10.01131,39.646805 L -10.581183,39.080763 L -9.617968,38.878296 L -9.082675,38.272959 L -8.654852,37.544826 L -7.868169,37.544826 L -8.083112,36.979766 L -7.582299,36.656468 L -7.582299,37.303064 L -6.511711,37.544826 L -5.441123,36.656468 L -5.369214,36.251633 L -4.441561,35.605527 C -4.777335,35.647278 -5.11311,35.677928 -5.441222,35.767226 L -5.441222,35.039191 L -5.084326,34.230896 L -5.441222,34.230896 L -6.225547,34.958047 L -6.440489,35.362391 L -6.225547,35.928924 L -6.583424,36.897836 L -7.15428,36.574538 L -7.653128,36.009478 L -8.439811,36.574538 L -8.725681,35.281836 L -7.369125,34.392987 L -7.369125,33.907597 L -6.511515,33.342046 L -5.154959,33.018257 L -4.226323,33.342046 L -2.51297,33.665345 L -2.940793,34.14985 L -3.869428,34.14985 L -2.940793,35.119745 L -2.227002,34.311941 L -2.010193,33.956519 C -2.010193,33.956519 0.72777351,36.410482 2.292494,39.094811 C 3.8572145,41.780024 4.5920281,44.944928 4.5920281,45.587694 z"
             id="path4144"
             style="fill:#ffffff;fill-opacity:1;fill-rule:nonzero;stroke-miterlimit:4" />
          <path
             d="M -13.091632,34.311941 L -13.163542,34.796447 L -12.662729,35.119745 L -11.806986,34.554194 L -12.234808,34.069197 L -12.806548,34.392987 L -13.091436,34.311941"
             id="path4152"
             style="fill:#ffffff;fill-opacity:1;fill-rule:nonzero;stroke-miterlimit:4" />
          <path
             d="M -12.305932,30.998404 L -14.163203,30.270762 L -16.304477,30.513014 L -18.947448,31.240165 L -19.447278,31.725555 L -17.804852,32.856657 L -17.804852,33.503253 L -18.447617,34.14985 L -17.590007,35.84837 L -17.020134,35.524089 L -16.304477,34.392987 C -15.201274,34.051908 -14.212125,33.665345 -13.163542,33.180348 L -12.305932,30.998306"
             id="path4160"
             style="fill:#ffffff;fill-opacity:1;fill-rule:nonzero;stroke-miterlimit:4" />
          <path
             d="M -10.377636,37.788159 L -10.663506,37.060026 L -11.164319,37.222117 L -11.020401,38.110475 L -10.377636,37.788159"
             id="path4168"
             style="fill:#ffffff;fill-opacity:1;fill-rule:nonzero;stroke-miterlimit:4" />
          <path
             d="M -10.092748,37.625086 L -10.235683,38.595963 L -9.449983,38.433872 L -8.879127,37.868812 L -9.378958,37.383422 C -9.546845,36.936345 -9.739684,36.519034 -9.949813,36.090229 L -10.377636,36.090229 L -10.377636,36.574735 L -10.092748,36.898033 L -10.092748,37.625184"
             id="path4176"
             style="fill:#ffffff;fill-opacity:1;fill-rule:nonzero;stroke-miterlimit:4" />
          <path
             d="M -20.660899,52.982786 L -21.232639,51.8508 L -22.303718,51.608547 L -22.874967,50.073593 L -24.302941,50.2348 L -25.516562,49.346442 L -26.802584,50.477544 L -26.802584,50.655942 C -27.191603,50.543657 -27.669821,50.528332 -28.016205,50.315354 L -28.302075,49.507551 L -28.302075,48.61821 L -29.158801,48.698765 C -29.087285,48.132722 -29.016357,47.567663 -28.94435,47.001719 L -29.444671,47.001719 L -29.94401,47.648315 L -30.444332,47.890077 L -31.158614,47.487108 L -31.23013,46.597768 L -31.087195,45.627873 L -30.015625,44.820069 L -29.158899,44.820069 L -29.016456,44.33468 L -27.945377,44.576441 L -27.159676,45.547318 L -27.016741,43.929845 L -25.659792,42.798743 L -25.159962,41.586104 L -24.160301,41.182251 L -23.589052,40.374447 L -22.304013,40.130819 L -21.660756,39.161907 C -22.303522,39.161907 -22.946287,39.161907 -23.589052,39.161907 L -22.375038,38.595865 L -21.518804,38.595865 L -20.304298,38.19103 L -20.161363,37.707507 L -20.590168,37.302672 L -21.089999,37.14058 L -20.947064,36.656075 L -21.303959,35.928924 L -22.161176,36.25124 L -22.018241,35.605134 L -23.017902,35.039092 L -23.803111,36.412349 L -23.732086,36.897738 L -24.517295,37.222019 L -25.017616,38.272468 L -25.231577,37.302573 L -26.588526,36.736531 L -26.802977,36.00938 L -25.017616,34.957948 L -24.231916,34.230797 L -24.160399,33.341948 L -24.588713,33.099204 L -25.159962,33.018159 L -25.516857,33.907499 C -25.516857,33.907499 -26.114041,34.0245 -26.267585,34.062419 C -28.228496,35.869392 -32.190595,39.770093 -33.111076,47.134044 C -33.07463,47.30478 -32.44385,48.294814 -32.44385,48.294814 L -30.944359,49.183172 L -29.444868,49.588007 L -28.801611,50.396695 L -27.802442,51.123846 L -27.231193,51.043291 L -26.802879,51.236131 L -26.802879,51.366589 L -27.373735,52.902035 L -27.80254,53.548632 L -27.659605,53.872913 L -28.0165,55.083587 L -26.73097,57.428212 L -25.44593,58.560198 L -24.87419,59.368001 L -24.9461,61.06603 L -24.517295,62.034942 L -24.9461,63.894177 C -24.9461,63.894177 -24.979697,63.882684 -24.924979,64.068745 C -24.869769,64.254904 -22.636938,65.494362 -22.494986,65.388855 C -22.353524,65.281384 -22.232594,65.187371 -22.232594,65.187371 L -22.375038,64.784402 L -21.804182,64.21836 L -21.589731,63.652318 L -20.661096,63.328037 L -19.947305,61.549454 L -20.161265,61.065931 L -19.662417,60.33878 L -18.590847,60.095152 L -18.019107,58.801959 L -18.162042,57.18645 L -17.305316,55.973811 L -17.162381,54.761172 C -18.334743,54.179805 -19.497477,53.581148 -20.661096,52.98259"
             id="path4184"
             style="fill:#ffffff;fill-opacity:1;fill-rule:nonzero;stroke-miterlimit:4" />
          <path
             d="M -22.2323,34.634748 L -21.518509,35.119745 L -20.946769,35.119745 L -20.946769,34.554194 L -21.66056,34.230896 L -22.2323,34.634748"
             id="path4192"
             style="fill:#ffffff;fill-opacity:1;fill-rule:nonzero;stroke-miterlimit:4" />
          <path
             d="M -24.088588,33.988643 L -24.445975,34.877492 L -23.731693,34.877492 L -23.374306,34.069197 C -23.066333,33.851406 -22.759833,33.632239 -22.446162,33.422601 L -21.73188,33.665345 C -21.256019,33.988643 -20.780159,34.311941 -20.303905,34.634748 L -19.589231,33.988643 L -20.375422,33.665345 L -20.732809,32.937702 L -22.089365,32.776004 L -22.160881,32.37166 L -22.803647,32.533752 L -23.088927,33.099401 L -23.446314,32.371759 L -23.588758,32.695057 L -23.517241,33.503352 L -24.088588,33.988643"
             id="path4200"
             style="fill:#ffffff;fill-opacity:1;fill-rule:nonzero;stroke-miterlimit:4" />
          <path
             d="M -21.518509,31.967316 L -21.161122,31.644509 L -20.44684,31.482811 C -19.95762,31.244881 -19.466434,31.084656 -18.947349,30.916769 L -19.232237,30.431772 L -20.154192,30.564196 L -20.589775,30.998306 L -21.307889,31.102437 L -21.946332,31.402257 L -22.256663,31.552363 L -22.446162,31.806109 L -21.518509,31.967316"
             id="path4228"
             style="fill:#ffffff;fill-opacity:1;fill-rule:nonzero;stroke-miterlimit:4" />
          <path
             d="M -20.304004,39.646412 L -19.875199,38.999816 L -20.518455,38.51531 L -20.304004,39.646412"
             id="path4236"
             style="fill:#ffffff;fill-opacity:1;fill-rule:nonzero;stroke-miterlimit:4" />
        </g>
        <path
           transform="matrix(0.9745548,-0.2241499,0.2241499,0.9745548,-2.115937,16.935929)"
           d="M 115.47234,105.12341 A 52.357449,30.229788 0 1 1 10.757446,105.12341 A 52.357449,30.229788 0 1 1 115.47234,105.12341 z"
           sodipodi:ry="30.229788"
           sodipodi:rx="52.357449"
           sodipodi:cy="105.12341"
           sodipodi:cx="63.114895"
           id="path5906"
           style="opacity:0.5;fill:url(#linearGradient6582);fill-opacity:1;stroke:none;stroke-width:1;stroke-linecap:square;stroke-linejoin:miter;stroke-miterlimit:4;stroke-dasharray:none;stroke-dashoffset:0;stroke-opacity:1;filter:url(#filter5952)"
           sodipodi:type="arc" />
        <path
           sodipodi:type="arc"
           style="fill:none;fill-opacity:1;stroke:#ce5c00;stroke-width:1;stroke-linecap:square;stroke-linejoin:miter;stroke-miterlimit:4;stroke-dasharray:none;stroke-dashoffset:0;stroke-opacity:1"
           id="path5756"
           sodipodi:cx="62.638298"
           sodipodi:cy="61.821278"
           sodipodi:rx="49.565956"
           sodipodi:ry="49.565956"
           d="M 112.20425,61.821278 A 49.565956,49.565956 0 1 1 13.072342,61.821278 A 49.565956,49.565956 0 1 1 112.20425,61.821278 z"
           transform="translate(10.300817,5.0023541)" />
        <path
           transform="matrix(0.9800272,0,0,0.9800272,11.551878,6.2367791)"
           d="M 112.20425,61.821278 A 49.565956,49.565956 0 1 1 13.072342,61.821278 A 49.565956,49.565956 0 1 1 112.20425,61.821278 z"
           sodipodi:ry="49.565956"
           sodipodi:rx="49.565956"
           sodipodi:cy="61.821278"
           sodipodi:cx="62.638298"
           id="path5766"
           style="fill:none;fill-opacity:1;stroke:#ffd5b3;stroke-width:1;stroke-linecap:square;stroke-linejoin:miter;stroke-miterlimit:4;stroke-dasharray:none;stroke-dashoffset:0;stroke-opacity:1"
           sodipodi:type="arc" />
      </g>
    </g>
    <path
       style="opacity:0.75;fill:#204a87;fill-opacity:0.71344999;fill-rule:nonzero;stroke-miterlimit:4"
       d=""
       id="path4206" />
    <path
       style="fill:#204a87;fill-opacity:0.71344999;fill-rule:nonzero;stroke-miterlimit:4"
       d=""
       id="path4210" />
    <path
       style="opacity:0.75;fill:#204a87;fill-opacity:0.71344999;fill-rule:nonzero;stroke-miterlimit:4"
       d=""
       id="path4216" />
    <path
       style="fill:#204a87;fill-opacity:0.71344999;fill-rule:nonzero;stroke-miterlimit:4"
       d=""
       id="path4220" />
    <text
       xml:space="preserve"
       style="font-size:34.34126282px;font-style:normal;font-variant:normal;font-weight:normal;font-stretch:normal;fill:#000000;fill-opacity:1;stroke:none;stroke-width:1px;stroke-linecap:butt;stroke-linejoin:miter;stroke-opacity:1;font-family:URW Gothic L;-inkscape-font-specification:URW Gothic L"
       x="18.588814"
       y="120.78697"
       id="text6574"><tspan
         sodipodi:role="line"
         id="tspan6576"
         x="18.588814"
         y="120.78697">Lucie</tspan></text>
  </g>
</svg>
